<svg xmlns="http://www.w3.org/2000/svg" viewBox="0 0 810 452"><defs><style>.cls-1{fill:#ccc;}.cls-16,.cls-17,.cls-2,.cls-46,.cls-50,.cls-7{fill:#fff;}.cls-3{stroke:#000;stroke-miterlimit:10;stroke-width:4px;}.cls-4{opacity:0.5;}.cls-5{fill:#e6e6e6;}.cls-6{fill:#29abe2;}.cls-7{font-size:22px;}.cls-10,.cls-16,.cls-17,.cls-29,.cls-46,.cls-50,.cls-7{font-family:ChalkboardSE-Regular, Chalkboard SE;}.cls-8{letter-spacing:-0.1em;}.cls-9{letter-spacing:0.01em;}.cls-10{font-size:20.57px;}.cls-11{letter-spacing:-0.01em;}.cls-12{letter-spacing:-0.04em;}.cls-13{letter-spacing:0.04em;}.cls-14{letter-spacing:0.03em;}.cls-15{fill:#00a99d;}.cls-16{font-size:19px;}.cls-17{font-size:18px;}.cls-18{letter-spacing:0.02em;}.cls-19{letter-spacing:-0.03em;}.cls-20{letter-spacing:0.02em;}.cls-21{letter-spacing:-0.05em;}.cls-22{letter-spacing:-0.04em;}.cls-23{letter-spacing:-0.04em;}.cls-24{letter-spacing:0em;}.cls-25{letter-spacing:-0.03em;}.cls-26{letter-spacing:0.02em;}.cls-27{letter-spacing:0.03em;}.cls-28{letter-spacing:-0.06em;}.cls-29{font-size:23px;}.cls-30{letter-spacing:-0.07em;}.cls-31{letter-spacing:0em;}.cls-32{letter-spacing:-0.07em;}.cls-33{letter-spacing:0.03em;}.cls-34{letter-spacing:-0.04em;}.cls-35{letter-spacing:0em;}.cls-36{letter-spacing:-0.05em;}.cls-37{letter-spacing:0.01em;}.cls-38{letter-spacing:-0.01em;}.cls-39{letter-spacing:0.03em;}.cls-40{letter-spacing:-0.02em;}.cls-41{letter-spacing:-0.07em;}.cls-42{letter-spacing:0.02em;}.cls-43{letter-spacing:0.04em;}.cls-44{fill:#fbb03b;}.cls-45{fill:#c7b299;}.cls-46{font-size:20.25px;}.cls-47{letter-spacing:0.02em;}.cls-48{letter-spacing:0.04em;}.cls-49{letter-spacing:0em;}.cls-50{font-size:21.21px;}.cls-51{letter-spacing:-0.01em;}.cls-52{letter-spacing:-0.02em;}.cls-53{letter-spacing:-0.08em;}.cls-54{letter-spacing:-0.03em;}.cls-55{letter-spacing:-0.02em;}.cls-56{fill:#f7691e;}.cls-57{fill:#8c6239;}.cls-58{fill:#c69c6d;}.cls-59{fill:#998675;}</style></defs><title>자산 17</title><g id="레이어_2" data-name="레이어 2"><g id="레이어_1-2" data-name="레이어 1"><rect class="cls-1" width="810" height="452"/><ellipse class="cls-2" cx="274.42" cy="338.5" rx="45.58" ry="44.5"/><path d="M274.42,296c24,0,43.58,19.07,43.58,42.5S298.45,381,274.42,381s-43.58-19.07-43.58-42.5S250.39,296,274.42,296m0-4c-26.28,0-47.58,20.82-47.58,46.5s21.3,46.5,47.58,46.5S322,364.18,322,338.5,300.7,292,274.42,292Z"/><polygon class="cls-2" points="245.03 305.68 242.93 302.94 258.33 302.26 245.03 305.68"/><polygon class="cls-3" points="240.13 303.63 247.13 302.26 245.03 308.41 240.13 303.63"/><ellipse class="cls-1" cx="274.5" cy="339" rx="43.5" ry="43"/><g class="cls-4"><path class="cls-5" d="M7.92,424.89a1.1,1.1,0,0,1,1.19-1.11,1.1,1.1,0,0,1,1.19,1.11A1.13,1.13,0,0,1,9.11,426,1.13,1.13,0,0,1,7.92,424.89Zm.31,3.22H10v10.2H8.23Z"/><path class="cls-5" d="M13.41,428.11h1.42l.15,1.47H15a4.85,4.85,0,0,1,3.42-1.72c2.15,0,3.12,1.38,3.12,4v6.46H19.85v-6.24c0-1.9-.58-2.72-1.93-2.72-1,0-1.76.54-2.79,1.57v7.39H13.41Z"/><path class="cls-5" d="M24.11,440.27a2.86,2.86,0,0,1,1.5-2.3v-.09a1.89,1.89,0,0,1-.92-1.67,2.47,2.47,0,0,1,1.13-1.9v-.08a3.53,3.53,0,0,1-1.32-2.74,3.62,3.62,0,0,1,3.83-3.63,4,4,0,0,1,1.44.25h3.56v1.33h-2.1a3,3,0,0,1,.83,2.1,3.49,3.49,0,0,1-3.73,3.54,3.67,3.67,0,0,1-1.52-.35,1.51,1.51,0,0,0-.66,1.21c0,.64.42,1.1,1.79,1.1h2c2.37,0,3.56.75,3.56,2.44,0,1.9-2,3.53-5.16,3.53C25.83,443,24.11,442,24.11,440.27Zm7.69-.53c0-.95-.71-1.27-2.05-1.27H28a5.83,5.83,0,0,1-1.33-.15,2.13,2.13,0,0,0-1,1.71c0,1.1,1.1,1.79,3,1.79S31.8,440.8,31.8,439.74Zm-1.31-8.25a2.17,2.17,0,1,0-4.33,0,2.18,2.18,0,1,0,4.33,0Z"/><path class="cls-5" d="M34.7,440.27a2.86,2.86,0,0,1,1.5-2.3v-.09a1.89,1.89,0,0,1-.92-1.67,2.47,2.47,0,0,1,1.13-1.9v-.08a3.53,3.53,0,0,1-1.32-2.74,3.62,3.62,0,0,1,3.83-3.63,4,4,0,0,1,1.44.25h3.56v1.33h-2.1a3,3,0,0,1,.83,2.1,3.49,3.49,0,0,1-3.73,3.54,3.67,3.67,0,0,1-1.52-.35,1.51,1.51,0,0,0-.66,1.21c0,.64.42,1.1,1.79,1.1h2c2.37,0,3.56.75,3.56,2.44,0,1.9-2,3.53-5.16,3.53C36.42,443,34.7,442,34.7,440.27Zm7.69-.53c0-.95-.71-1.27-2-1.27H38.58a5.83,5.83,0,0,1-1.33-.15,2.13,2.13,0,0,0-1,1.71c0,1.1,1.1,1.79,3,1.79S42.39,440.8,42.39,439.74Zm-1.31-8.25a2.17,2.17,0,1,0-4.33,0,2.18,2.18,0,1,0,4.33,0Z"/><path class="cls-5" d="M45.71,437.26a1.25,1.25,0,1,1,1.25,1.3A1.26,1.26,0,0,1,45.71,437.26Z"/><path class="cls-5" d="M51,424.89a1.2,1.2,0,0,1,2.39,0,1.2,1.2,0,0,1-2.39,0Zm.32,3.22H53v10.2H51.3Z"/><path class="cls-5" d="M55.71,433.22c0-3.4,2.23-5.36,4.73-5.36s4.73,2,4.73,5.36-2.23,5.34-4.73,5.34S55.71,436.6,55.71,433.22Zm7.68,0c0-2.34-1.19-3.93-3-3.93s-2.94,1.59-2.94,3.93,1.19,3.91,2.94,3.91S63.39,435.56,63.39,433.22Z"/></g><rect class="cls-6" x="486.5" y="206.5" width="65" height="400" rx="9.65" ry="9.65" transform="translate(925.5 -112.5) rotate(90)"/><text class="cls-7" transform="translate(609.13 428.52) scale(0.9 1)"><tspan class="cls-8">T</tspan><tspan class="cls-9" x="10.4" y="0">a</tspan><tspan x="22.46" y="0">sk Queue</tspan></text><text class="cls-10" transform="translate(117.5 345.07) scale(1.02 1)">E<tspan class="cls-11" x="11.25" y="0">v</tspan><tspan x="20.66" y="0">e</tspan><tspan class="cls-12" x="31.47" y="0">n</tspan><tspan x="41.2" y="0">t L</tspan><tspan class="cls-13" x="69.13" y="0">o</tspan><tspan class="cls-14" x="79.95" y="0">o</tspan><tspan x="90.61" y="0">p</tspan></text><rect class="cls-15" x="569.58" y="-1.42" width="40.12" height="258.72" rx="9.65" ry="9.65" transform="translate(461.7 717.58) rotate(-90)"/><rect class="cls-15" x="569.58" y="47.58" width="40.12" height="258.72" rx="9.65" ry="9.65" transform="translate(412.7 766.58) rotate(-90)"/><rect class="cls-15" x="569.58" y="96.58" width="40.12" height="258.72" rx="9.65" ry="9.65" transform="translate(363.7 815.58) rotate(-90)"/><text class="cls-16" transform="translate(567.5 134.02)">DOM</text><text class="cls-17" transform="translate(501 181.19)"><tspan class="cls-18">A</tspan><tspan x="11.89" y="0">jax(XMLH</tspan><tspan class="cls-19" x="91.43" y="0">t</tspan><tspan x="99.13" y="0">tpRequ</tspan><tspan class="cls-20" x="156.37" y="0">e</tspan><tspan class="cls-21" x="166.25" y="0">s</tspan><tspan class="cls-22" x="173.16" y="0">t</tspan><tspan x="180.69" y="0">)</tspan></text><text class="cls-16" transform="translate(547 231.02)">S<tspan class="cls-23" x="11.17" y="0">e</tspan><tspan class="cls-24" x="20.32" y="0">t</tspan><tspan class="cls-25" x="29.01" y="0">T</tspan><tspan x="39.26" y="0">i</tspan><tspan class="cls-26" x="44" y="0">m</tspan><tspan x="58.47" y="0">e</tspan><tspan class="cls-27" x="68.46" y="0">o</tspan><tspan class="cls-28" x="78.31" y="0">u</tspan><tspan x="87.19" y="0">t</tspan></text><text class="cls-29" transform="translate(540.5 95.35)"><tspan class="cls-30">W</tspan><tspan class="cls-31" x="21.2" y="0">e</tspan><tspan x="33.32" y="0">b</tspan><tspan class="cls-32" x="46.18" y="0"> </tspan><tspan class="cls-33" x="53.4" y="0">A</tspan><tspan x="68.9" y="0">PI</tspan></text><polyline points="243 309 248 313 250 300"/><polygon class="cls-1" points="249.59 302.64 251 295 255 301 250.63 303.05 249.59 302.64"/><polyline class="cls-1" points="247.42 300.21 251 299 250.59 297.26"/><polygon class="cls-1" points="249.21 304.01 250 303 250 303 249.21 304.01"/><polyline class="cls-1" points="251 303 250 303 250 304 250 303 250 303 250 303 250 303 249.46 303.8 249.41 303.87 264 301 261 308 250 302 250 304 250 303 250 303 249.53 303.05 250 303 250 303"/><text class="cls-29" transform="translate(117.5 33.35)"><tspan class="cls-34">J</tspan><tspan class="cls-35" x="11.84" y="0">a</tspan><tspan class="cls-36" x="24.07" y="0">v</tspan><tspan class="cls-37" x="33.52" y="0">a</tspan><tspan class="cls-38" x="46.13" y="0">s</tspan><tspan x="55.81" y="0">c</tspan><tspan class="cls-39" x="67.14" y="0">r</tspan><tspan class="cls-40" x="77.82" y="0">i</tspan><tspan class="cls-41" x="83.03" y="0">p</tspan><tspan x="93.63" y="0">t E</tspan><tspan class="cls-42" x="125.52" y="0">n</tspan><tspan class="cls-43" x="137.62" y="0">g</tspan><tspan x="150.55" y="0">i</tspan><tspan class="cls-42" x="156.3" y="0">n</tspan><tspan x="168.39" y="0">e</tspan></text><rect class="cls-44" x="231.48" y="53" width="136.52" height="216" rx="9.65" ry="9.65"/><rect class="cls-45" x="85" y="53" width="136.52" height="216" rx="9.65" ry="9.65"/><text class="cls-46" transform="translate(91.68 73.91) scale(0.92 1)">Mem<tspan class="cls-47" x="42.33" y="0">o</tspan><tspan class="cls-48" x="52.52" y="0">r</tspan><tspan x="62.11" y="0">y He</tspan><tspan class="cls-49" x="103.96" y="0">a</tspan><tspan x="114.83" y="0">p</tspan></text><text class="cls-50" transform="translate(237.48 74.71) scale(0.92 1)">C<tspan class="cls-51" x="12.45" y="0">a</tspan><tspan class="cls-52" x="23.65" y="0">l</tspan><tspan x="29.7" y="0">l S</tspan><tspan class="cls-53" x="56.66" y="0">t</tspan><tspan class="cls-54" x="64.67" y="0">a</tspan><tspan class="cls-55" x="75.39" y="0">c</tspan><tspan x="85.49" y="0">k</tspan></text><rect class="cls-56" x="242" y="183" width="115" height="20" rx="1.41" ry="1.41"/><rect class="cls-56" x="242" y="211" width="115" height="20" rx="1.42" ry="1.42"/><rect class="cls-56" x="242" y="239" width="115" height="20" rx="1.42" ry="1.42"/><rect class="cls-57" x="96" y="114" width="35" height="35" rx="1.41" ry="1.41"/><rect class="cls-58" x="145" y="160" width="35" height="35" rx="1.41" ry="1.41"/><rect class="cls-59" x="113" y="218" width="35" height="35" rx="1.41" ry="1.41"/></g></g></svg>